<svg id="Layer_1" data-name="Layer 1" xmlns="http://www.w3.org/2000/svg" viewBox="0 0 980.5 919.81"><defs><style>.cls-1{fill-rule:evenodd;}</style></defs><title>360Workplace</title><path class="cls-1" d="M896.5,894.25c5.54,2,11.14,4.19,17.35,6.4a28.44,28.44,0,0,1-3.07,3.76,494,494,0,0,1-40.37,33.35c-12.35,9-25,17.4-38.19,25.26-11.53,6.78-23.5,13-35.49,19a477.34,477.34,0,0,1-64.6,25.08c-11.42,3.54-23,6.53-34.76,9.17-8.92,2-17.87,3.48-26.88,4.91-8.12,1.33-16.25,2.45-24.39,3.57-3.8.44-7.6.69-11.36,1.09-13.13.78-26.31,1.18-39.61.87-3,0-6.12.09-9.2,0-7.52-.28-14.93-.53-22.44-1-8.5-.78-17.09-1.53-25.48-2.83a503.92,503.92,0,0,1-65.63-14.2,480.39,480.39,0,0,1-62.56-22.6,456.57,456.57,0,0,1-56.69-30.64,465.73,465.73,0,0,1-42.83-30.8,497.13,497.13,0,0,1-44.79-41.55c-2.11-2.11-4-4.56-6.28-7,3.52-4.69,7-9.41,10.43-14,82.56,90.27,185.09,138.6,306.85,147,121.9,4.48,228.23-34.37,320-114.92" transform="translate(-76.68 -107.03)"/><path class="cls-1" d="M343.29,208.22c-1.51-.33-2.93-.67-4.28-.89a10.17,10.17,0,0,1-4.92-7.67c.29-4.07,2.79-6.81,6.26-9.13a475.4,475.4,0,0,1,65.22-37.18A442.93,442.93,0,0,1,465,130.5,427.45,427.45,0,0,1,512.3,119c9.64-1.8,19.16-3.39,28.87-4.63,10.8-1.48,21.87-2.19,32.76-2.9,14.64-1,29.09-.46,43.62-.51,4.28,0,8.56.75,13.32,1.11C623.53,118,616,123.14,609,128.22c-5.42,0-10.57-.19-15.55.11-9.47.12-19,.3-28.45,1-9.65.73-19,2.26-28.55,3.41a323.71,323.71,0,0,0-36.71,6.52,443.45,443.45,0,0,0-65.13,20.48c-11.81,4.78-23.56,10.18-35,15.85A479.93,479.93,0,0,0,350,205c-1,.6-2,1.44-3,2a25.7,25.7,0,0,1-3.71,1.2" transform="translate(-76.68 -107.03)"/><path class="cls-1" d="M1008.2,405.42c1.6-.75,2.77-1.18,3.83-1.7.48.45.8.8,1,.95,1.22,3,2.25,6.06,3.41,9,2.26-.86,4.09-1.44,6-2.18a3.84,3.84,0,0,0,1.42.43c4.14.19,6.41,2.75,7.59,6.28,2.52,7.59,5.13,15.28,7.33,23,2.52,8.92,4.82,17.81,6.92,26.84,1.47,6.77,2.9,13.74,4.12,20.5,1.39,7.5,2.64,15,3.63,22.51.53,4,.76,7.89,1.12,11.85.56,5.66,1.21,11.26,1.57,16.83.33,3.35.15,6.79.26,10.17.22,5.54.81,11,.81,16.51-.2,10.58-.39,21.22-1.07,31.59-.42,8-1.48,16.13-2.38,24.09-.67,5.56-1.18,11.25-2.13,16.78-1.07,7.24-2.22,14.48-3.85,21.51-2.08,9.63-4.63,19-7,28.68-.84,3.29-2.28,6.15-6.06,7.3a8.6,8.6,0,0,1-8.48-1.89,8,8,0,0,1-2.58-8.3c1.58-6.31,3.2-12.4,4.53-18.62q2.89-13.32,5.32-26.85c1.24-7.49,2.42-14.91,3.46-22.37.45-3.39.83-6.71,1-10,.37-6.81.8-13.52,1-20.19.29-7.54.73-15.3.73-22.92-.13-8.17-.38-16.23-.94-24.26-.71-9.51-1.49-18.95-2.76-28.35-1.9-12.92-4.11-25.69-6.92-38.44-4.3-20-10.36-39.31-16.92-58.66-1.06-3.27-2.52-6.46-3.95-10" transform="translate(-76.68 -107.03)"/><path class="cls-1" d="M721,145.37c-1.67-6.06-3.38-12.24-5.24-19,2.83.65,5.41,1.22,8,2a480.9,480.9,0,0,1,57.77,20.47,446.61,446.61,0,0,1,81,45.28c8.11,5.6,15.79,11.87,23.7,17.87,2.61,2,4.52,4.44,4.41,8.18a8.47,8.47,0,0,1-12.44,7.42,45.79,45.79,0,0,1-7-5.13,406.06,406.06,0,0,0-57.09-38,424.57,424.57,0,0,0-60-27.94c-10.1-3.61-20.2-7.11-30.71-10.07-.65-.23-1.24-.72-2.34-1.11" transform="translate(-76.68 -107.03)"/><path class="cls-1" d="M214.22,784.11c-3.75,4.6-7.46,9.45-11.57,14.52-2.09-3.8-4.13-7.25-6.06-10.57-2.15-4-4.08-8.2-6.33-12.21-3.67-6.56-2.8-10.41,3.63-14.92-1-2.49-2-5.13-3.26-8a24.07,24.07,0,0,0,3.61-1.52,1.09,1.09,0,0,1,.73.56c1.5,3,3,6,4.61,8.95a14.1,14.1,0,0,1,6.07,6.56l8.57,16.62" transform="translate(-76.68 -107.03)"/><path class="cls-1" d="M992.11,359.16c-1.53.83-2.74,1.48-4.14,2.32-2.45-4.8-5.19-9.5-7.92-14.32,1.33-.74,2.56-1.53,4-2.51,2.64,4.88,5.22,9.42,8.05,14.51" transform="translate(-76.68 -107.03)"/><path class="cls-1" d="M999.81,374.33c2.15,4.72,4.2,9.26,6.12,13.58a3.42,3.42,0,0,1-4.1,2.06c-2.08-4.53-4.29-9.13-6.4-13.59,1.06-1.9,2.33-2.26,4.38-2.05" transform="translate(-76.68 -107.03)"/><path class="cls-1" d="M1001.65,747.54c1.47.52,2.64,1.05,3.69,1.33.07.41.32.75.32,1-2.15,4.75-4.36,9.54-6.73,14.51-1.54-.81-2.63-1.34-4-2.18,2.22-4.88,4.42-9.63,6.75-14.66" transform="translate(-76.68 -107.03)"/><path class="cls-1" d="M178,722.86a41.26,41.26,0,0,1,4.47-1.4l5.83,14.64c-1.13.78-2.42,1.4-4.17,2.58-2-5.5-4-10.47-6.13-15.82" transform="translate(-76.68 -107.03)"/><path class="cls-1" d="M167.76,691.85c1.63-.56,3-.94,4.39-1.34,1.72,5.07,3.26,10.19,5.08,15.63a42.25,42.25,0,0,0-4.61,1.31c-1.66-5.38-3.23-10.38-4.86-15.6" transform="translate(-76.68 -107.03)"/><path class="cls-1" d="M936.84,278.05c-1.46,1.27-2.35,2.05-3.41,3.11-3.54-4-7.11-7.92-11-12.22,1.25-1,2.36-2.11,3.58-3.16,3.54,4,7.14,8,10.8,12.27" transform="translate(-76.68 -107.03)"/><path class="cls-1" d="M1018.13,718.79c-2.08,5.53-3.8,10.41-5.84,15.88-1.48-.87-2.67-1.37-4.1-2.08,1.4-5.22,3.65-10,5.64-15.17,1.27.44,2.52.72,4.3,1.37" transform="translate(-76.68 -107.03)"/><path class="cls-1" d="M164.31,658.66c1.32,5.65,2.54,10.78,3.82,16.25-1.43.34-2.72.62-4.2,1.09-2.15-5.16-2.37-10.45-4-15.63a46.48,46.48,0,0,1,4.4-1.71" transform="translate(-76.68 -107.03)"/><path class="cls-1" d="M161.86,643c-1.82.47-3,.81-4.35,1.28-2.3-5-1.86-10.54-3.26-16a36.61,36.61,0,0,0,4.19-1.46c2.16,5.19,1.23,10.85,3.42,16.22" transform="translate(-76.68 -107.03)"/><path class="cls-1" d="M987.66,776.81a34.1,34.1,0,0,1,3.67,1.93c-1.85,5.06-5.13,9.35-7.37,13.83a2.22,2.22,0,0,1-.68.12c-1.13-.4-2.21-.93-3.64-1.52a141.63,141.63,0,0,1,8-14.36" transform="translate(-76.68 -107.03)"/><path class="cls-1" d="M157.1,611.11c-1.77.09-2.89.09-4.53.25-.49-5.47-.95-10.69-1.44-16.35a31.19,31.19,0,0,0,4.54-.47c.47,5.54.93,10.88,1.43,16.57" transform="translate(-76.68 -107.03)"/><path class="cls-1" d="M971.78,333.58c-3.23-5-6-9.4-8.76-13.93,1.12-.9,2-1.53,3-2.4.42.24,1,.34,1.19.76,2.68,4.07,5.32,8,8.22,12.51-1.07.9-2.22,1.87-3.68,3.06" transform="translate(-76.68 -107.03)"/><path class="cls-1" d="M943.75,293.77c1.2-1.09,2.18-2.06,3.42-3.1,3.31,4.32,6.6,8.43,10,13-1.25,1-2.3,1.85-3.51,2.94-3.36-4.29-6.53-8.36-10-12.83" transform="translate(-76.68 -107.03)"/><path class="cls-1" d="M154.8,578.67h-4.08V562.52c1.21,0,2.6-.06,4.08-.16Z" transform="translate(-76.68 -107.03)"/><path class="cls-1" d="M971.39,804.5c1.45,1,2.58,1.71,3.81,2.61-3,4.54-5.94,8.89-8.73,13.11-.72,0-1,.25-1.25,0a24.14,24.14,0,0,1-2.82-1.92c2.9-4.51,5.84-8.92,9-13.8" transform="translate(-76.68 -107.03)"/><path class="cls-1" d="M911.43,257.52c-4.1-4.23-7.66-7.92-11.48-11.85.85-.86,1.63-1.84,2.9-3.18,3.95,3.81,7.83,7.67,11.84,11.63-1.21,1.1-2.09,2.29-3.26,3.4" transform="translate(-76.68 -107.03)"/><path class="cls-1" d="M151.45,546.51v-7.64c1.43-.43,2.76-.92,4.37-1.38v8.76c-1.56.12-2.8.2-4.37.26" transform="translate(-76.68 -107.03)"/><polygon points="309.09 787.04 290.76 787.04 274.31 666.83 287.27 666.83 301.43 769.2 314.83 667.02 327.97 667.02 341.17 769.32 354.74 666.83 366.4 666.83 350.14 787.04 332.46 787.04 320.96 705.43 309.09 787.04"/><path d="M452.88,803c0-18.46,9.12-30.34,27.35-30.34,18.6,0,27.65,11.88,27.65,30.34v62c0,18.15-9.05,30.3-27.65,30.3-18.23,0-27.35-12.15-27.35-30.3Zm13.22,62.8c0,10.88,4.6,17.31,14.13,17.31,9.93,0,14.37-6.43,14.37-17.31V802.2c0-10.82-4.44-17.31-14.37-17.31-9.53,0-14.13,6.49-14.13,17.31Z" transform="translate(-76.68 -107.03)"/><path d="M547.47,773.86c18.81,0,26.69,9.63,26.69,27.53v9.76c0,13.18-4.54,21.44-14.89,24.71,11,3.17,15.09,12.27,15.09,25v18.71c0,5.38.17,10.26,2.36,14.48H563.2c-1.52-3.45-2.23-6.65-2.23-14.6V860.59c0-13.64-6.38-17.87-17.5-17.87H534v51.34H520.7V773.86ZM544,830.54c10.6,0,17-3.48,17-16.41V802.67c0-10.91-4-16.6-13.92-16.6H534v44.47Z" transform="translate(-76.68 -107.03)"/><polygon points="531.99 734.83 524.95 746.64 524.95 787.04 511.5 787.04 511.5 666.83 524.95 666.83 524.95 724.88 556.89 666.83 570.4 666.83 540.03 721.62 571.41 787.04 557.72 787.04 531.99 734.83"/><path d="M684.69,773.83c18.85,0,27,11.15,27,29.36v14.49c0,19.08-8.92,29-27.94,29h-12v47.42H658.53V773.83Zm-1,60.75c9.85,0,14.64-4.54,14.64-16V802.63c0-11.06-3.86-16.56-13.68-16.56H671.78v48.51Z" transform="translate(-76.68 -107.03)"/><polygon points="645.94 787.04 645.94 666.83 659.29 666.83 659.29 774.79 693.55 774.79 693.55 787.04 645.94 787.04"/><path d="M794,869.82l-4.63,24.24H777l23-120.23h19.38l23,120.23H828.92l-4.5-24.24Zm1.65-11.4h26.77L809,788.9Z" transform="translate(-76.68 -107.03)"/><path d="M905.84,803V813.7H893.19V802.2c0-10.82-4.4-17.31-14.05-17.31S865,791.38,865,802.2v63.52c0,10.78,4.46,17.34,14.12,17.34s14.05-6.56,14.05-17.34V850.06h12.65v14.88c0,18.15-8.64,30.3-27,30.3s-27-12.15-27-30.3V803c0-18.22,8.61-30.3,27-30.3s27,12.08,27,30.3" transform="translate(-76.68 -107.03)"/><polygon points="884.07 720.03 884.07 732 854.69 732 854.69 774.79 890.81 774.79 890.81 787.04 841.42 787.04 841.42 666.83 890.81 666.83 890.81 679.04 854.69 679.04 854.69 720.03 884.07 720.03"/><path d="M347.18,233.72a123.3,123.3,0,0,1,1,14.29q0,44.78-48.54,99.92-71.44,82.77-78.1,93.26c19.67,3.2,39.7,6.28,59.93,9.53q36.3,9.57,53.38,35.26c25.33,38.11,38.05,75.12,38.05,111.42q0,40.89-21.91,92.27-4.82,10.49-47.58,96.25c-21.59,43-60,95.21-115.21,156.12q-31.42,35.12-59.06,35.15a34.89,34.89,0,0,1-17.1-4.78c-7.56-3.76-15.26-8.11-22.8-12.84S77.45,948.91,76.78,942c-1.3-19.14,9.54-35.61,32.36-49.56q49.59-30.45,57.16-40,68.55-83.82,89.47-122.82Q290.12,665,290.05,589.8c0-12.71-.67-26.16-1.88-40q-2.9-32.38-30.44-35.23c-18.49-1.93-56.13,4.41-113.35,19.14-3.2-5.25-12.73-13.38-28.48-24.85-12.11-8.91-18.18-17.06-18.18-24.76,0-6.32,2.9-13.25,8.53-21q48.76-59,139.09-181.89C234.52,280,219,281.9,198.68,287q-35.22,8.44-48.59,8.41c-19,0-34.62-7.17-46.63-21.84-3.76-4.36-6-10.7-6.69-19V233.72c5.78-1.43,46.67-10.82,122.84-28.64q34.24-7.59,62.82-7.56,59.11,0,64.75,36.2" transform="translate(-76.68 -107.03)"/><path d="M707.38,131.1c3.7,3.1,5.59,7.85,5.59,14,0,12.34-4.44,20.27-13.05,23.27-21,6.79-40.24,18.94-57.6,36.27Q561.52,285.46,503.84,463q12.11,0,33.91-11.2c14.54-7.37,26.19-11.11,34.89-11.11a39.6,39.6,0,0,1,16.79,3.74q68.64,27.86,80.83,91.92A154,154,0,0,1,673,565.16c0,34.76-12.09,68.42-36.33,101.3-20.42,28.46-47,53-79.83,73.4-9.31,5.59-19,8.45-28.82,8.45-12.4,0-32-7.43-58.59-22.47q-62.19-35.15-62.26-129.09,0-32.54,7.47-68.66,27.84-129.45,76.18-216.71,58.49-104.88,65.08-115.25,42.75-62.19,95.75-85.49c5.52-2.42,10.44-3.61,14.78-3.61,8.75,0,22.29,8,40.91,24.07m-113,423c0-9.34-2.52-19.39-7.87-30.3s-11.92-16.21-20-16.21c-4.9,0-13.33,3.63-25.05,10.61-11.75,7.2-20.83,10.68-27,10.68-7.27,0-13.83-3.65-19.46-11-11.06,13.51-16.67,32.77-16.67,57.52,0,13.07,1.88,30.63,5.61,53q7.29,46.47,22.34,46.52a18.12,18.12,0,0,0,9.23-2.89q32.41-15.66,55.72-49.2c15.5-22.34,23.15-45.27,23.15-68.71" transform="translate(-76.68 -107.03)"/><path d="M987,458.52a250.05,250.05,0,0,1,2.86,38.09q0,106.9-73.5,190.76Q857.22,755.2,800,751.3c-29.91-1.87-55-15.36-75.34-40Q681.82,657.77,681.74,572c0-54,11.72-111.6,35.26-172.49q23-58.23,49.64-80.1c26.68-21.73,56.87-32.44,90.62-32.44q35.26,0,59,19.95C936,324,951,341.57,961.18,359.27A142.74,142.74,0,0,1,978.88,408c2.85,17.15,5.41,33.95,8.07,50.51m-79.22-9c-3.82-15.56-7-30.94-9.54-46.32-4.47-17.17-12.76-29.56-24.75-37.26-8.9-4.93-15.65-7.58-20-7.58-5.11,0-11.09,3.54-18.2,10.42q-72.48,75.45-72.42,189.91,0,67.7,32.38,117.26c3.2,5,7.09,7.59,11.53,7.59,5.69,0,16.81-8.8,33.35-26.6q73.5-79.15,73.42-160.31a195.73,195.73,0,0,0-5.74-47.11" transform="translate(-76.68 -107.03)"/></svg>