<svg id="Layer_1" data-name="Layer 1" xmlns="http://www.w3.org/2000/svg" viewBox="0 0 240.09 215.65"><defs><style>.cls-1{fill:#ff6e00;}.cls-2{fill:#fff;}</style></defs><title>dotco</title><path class="cls-1" d="M171.18.85H14.69A12.68,12.68,0,0,0,2,13.53V203.81A12.68,12.68,0,0,0,14.69,216.5H205a12.69,12.69,0,0,0,12.69-12.69V44.47a6,6,0,0,0-2.1-5.14L181.08,4.86c-3.31-3.32-4.8-4-9.9-4" transform="translate(-2.01 -0.85)"/><path class="cls-2" d="M163.69,121.79a40,40,0,1,0,40.05,40.05,40.05,40.05,0,0,0-40.05-40m0,60.78a20.73,20.73,0,1,1,20.74-20.73,20.73,20.73,0,0,1-20.74,20.73" transform="translate(-2.01 -0.85)"/><path class="cls-2" d="M100,170.34a15,15,0,0,0-3.27,3.23,20.73,20.73,0,1,1,0-23.46,15.18,15.18,0,0,0,3.27,3.23c4.92,3.31,12.59,3.24,19.15,2.67a40,40,0,1,0,0,11.66c-6.56-.58-14.23-.66-19.15,2.67" transform="translate(-2.01 -0.85)"/><path class="cls-2" d="M34.41,188.31a9.24,9.24,0,1,1-9.25-9.24,9.25,9.25,0,0,1,9.25,9.24" transform="translate(-2.01 -0.85)"/><path class="cls-1" d="M227.85,216.32v-7.44h-2.67v-1.52h7.13v1.52h-2.66v7.44Z" transform="translate(-2.01 -0.85)"/><path class="cls-1" d="M233.45,216.32v-9h2.71l1.62,6.11,1.61-6.11h2.71v9h-1.68v-7l-1.78,7H236.9l-1.77-7v7Z" transform="translate(-2.01 -0.85)"/></svg>