<svg class="h-c-header__company-logo-img h-c-header__company-logo-img--standard" id="Logo" xmlns="http://www.w3.org/2000/svg" viewBox="0 0 194.3 24.1"><style>.st0{fill:#5f6368}.st1{fill:#4285f4}.st2{fill:#ea4335}</style><g id="for_Startups"><path class="st0" d="M86.1 1.6c.8 0 1.4.1 1.9.4l-.6 1.9c-.4-.2-.8-.3-1.2-.3-.5 0-.9.2-1.3.5-.3.4-.5.8-.5 1.4V7h2.9v1.9h-2.9v9.3h-2.1V8.9h-2.1V7h2.1V5.4c0-1.1.4-2 1.1-2.7.7-.7 1.6-1.1 2.7-1.1zM88 12.6c0-1.7.5-3.2 1.6-4.3s2.5-1.7 4.2-1.7 3.1.6 4.1 1.7c1.1 1.1 1.7 2.6 1.7 4.3s-.6 3.2-1.7 4.3-2.5 1.7-4.1 1.7c-1.7 0-3.1-.6-4.2-1.7S88 14.4 88 12.6zm2.1 0c0 1.2.4 2.2 1.1 2.9.7.8 1.6 1.1 2.6 1.1s1.9-.4 2.6-1.1c.7-.8 1.1-1.7 1.1-2.9s-.4-2.2-1.1-2.9c-.7-.8-1.6-1.2-2.6-1.2s-1.9.4-2.6 1.2c-.8.8-1.1 1.7-1.1 2.9zM103.2 18.3h-2.1V7h2v1.8h.1c.2-.6.7-1.1 1.3-1.5.7-.4 1.3-.6 2-.6.6 0 1.1.1 1.6.3l-.6 2c-.3-.1-.7-.2-1.2-.2-.8 0-1.5.3-2.1 1-.6.6-.9 1.4-.9 2.3v6.2h-.1zM123.7 13.9c0 1.4-.5 2.6-1.6 3.5s-2.4 1.3-3.9 1.3c-1.4 0-2.6-.4-3.6-1.2-1-.8-1.8-1.9-2.2-3.3l2-.8c.1.5.3.9.6 1.3s.5.7.9 1c.3.3.7.5 1.1.7s.8.2 1.3.2c1 0 1.8-.2 2.4-.7s.9-1.2.9-2c0-.7-.3-1.3-.8-1.8s-1.4-.9-2.7-1.4c-1.3-.5-2.1-.8-2.5-1-1.7-.9-2.6-2.2-2.6-3.9 0-1.2.5-2.2 1.4-3.1 1-.9 2.2-1.3 3.6-1.3 1.3 0 2.3.3 3.3 1 .9.6 1.5 1.4 1.8 2.4l-2 .8c-.2-.6-.5-1.1-1.1-1.5-.5-.4-1.2-.6-2-.6s-1.5.2-2.1.7c-.6.4-.9 1-.9 1.7 0 .6.2 1.1.7 1.5.5.4 1.6.9 3.2 1.5 1.7.6 2.9 1.3 3.6 2.1s1.2 1.7 1.2 2.9zM129.5 18.5c-.9 0-1.7-.3-2.3-.9-.6-.6-.9-1.4-.9-2.4V8.9h-2V7h2V3.6h2.1V7h2.8v1.9h-2.8v5.6c0 .8.1 1.3.4 1.5s.6.4 1 .4c.2 0 .3 0 .5-.1s.3-.1.4-.1l.7 1.9c-.5.3-1.1.4-1.9.4zM137.2 6.6c1.6 0 2.8.4 3.7 1.3.9.8 1.4 2 1.4 3.4v6.9h-2v-1.6h-.1c-.9 1.3-2 1.9-3.5 1.9-1.2 0-2.3-.4-3.1-1.1s-1.3-1.7-1.3-2.8c0-1.2.4-2.1 1.3-2.8.9-.7 2.1-1 3.5-1 1.3 0 2.3.2 3.1.7V11c0-.7-.3-1.4-.9-1.9s-1.3-.8-2-.8c-1.2 0-2.1.5-2.8 1.5l-1.9-1.2c1.1-1.2 2.6-2 4.6-2zm-2.7 8.2c0 .6.2 1 .7 1.4s1 .6 1.6.6c.9 0 1.7-.3 2.4-1s1-1.4 1-2.3c-.7-.5-1.6-.8-2.8-.8-.9 0-1.6.2-2.2.6s-.7.9-.7 1.5zM144.2 7h2v1.8h.1c.6-1.4 1.9-2.2 3.9-2.2h.4v2.2l-.9-.1c-1 0-1.8.3-2.4.9-.6.6-1 1.4-1 2.3v6.2h-2.1V7zm13.2 11.5c-.9 0-1.7-.3-2.3-.9s-.9-1.4-.9-2.4V8.9h-2V7h2V3.6h2.1V7h2.8v1.9h-2.8v5.6c0 .8.1 1.3.4 1.5.3.3.6.4 1 .4.2 0 .3 0 .5-.1.2 0 .3-.1.4-.1l.7 1.9c-.5.3-1.1.4-1.9.4zM170.7 18.3h-2v-1.6h-.1c-.3.6-.8 1-1.5 1.4s-1.4.6-2.1.6c-1.4 0-2.4-.4-3.2-1.2s-1.1-1.9-1.1-3.4V7h2.1v7c0 1.8 1 2.8 2.8 2.8.8 0 1.5-.3 2.1-1s.9-1.5.9-2.4V7h2.1v11.3zM178.6 18.6c-.8 0-1.6-.2-2.3-.5-.7-.4-1.2-.8-1.6-1.4h-.1l.1 1.6v5h-2.1V7h2v1.6h.1c.4-.6.9-1 1.6-1.4.7-.4 1.4-.5 2.3-.5 1.5 0 2.7.6 3.8 1.7 1.1 1.2 1.6 2.6 1.6 4.3s-.5 3.1-1.6 4.3c-1 1.1-2.3 1.6-3.8 1.6zm-.3-1.9c1 0 1.9-.4 2.6-1.1.7-.8 1-1.7 1-2.9s-.3-2.2-1-2.9c-.7-.8-1.5-1.2-2.6-1.2-1 0-1.9.4-2.6 1.2-.7.8-1 1.7-1 2.9s.3 2.2 1 2.9c.7.7 1.6 1.1 2.6 1.1zM194.3 15.1c0 1-.4 1.8-1.3 2.5s-1.9 1-3.2 1c-1.1 0-2.1-.3-3-.9s-1.5-1.4-1.8-2.3l1.9-.8c.3.7.7 1.2 1.2 1.6s1.1.6 1.7.6c.7 0 1.2-.1 1.7-.4s.7-.6.7-1c0-.7-.6-1.2-1.7-1.6l-1.9-.5c-2.2-.6-3.3-1.6-3.3-3.2 0-1 .4-1.9 1.3-2.5.8-.6 1.9-.9 3.2-.9 1 0 1.9.2 2.7.7s1.4 1.1 1.7 1.9l-1.9.8c-.2-.5-.6-.8-1-1.1-.5-.3-1-.4-1.6-.4s-1 .1-1.5.4c-.4.3-.7.6-.7 1 0 .6.6 1.1 1.8 1.4l1.7.4c2.2.5 3.3 1.6 3.3 3.3z"></path></g><g id="Google"><path class="st1" d="M9.5 18.6C4.4 18.6 0 14.4 0 9.3 0 4.2 4.3 0 9.5 0c2.8 0 4.8 1.1 6.4 2.6l-1.8 1.8c-1.1-1-2.6-1.8-4.6-1.8-3.7 0-6.7 3-6.7 6.8s2.9 6.8 6.7 6.8c2.4 0 3.8-1 4.7-1.9.7-.7 1.2-1.8 1.4-3.2H9.5V8.5h8.6c.1.5.1 1 .1 1.6 0 1.9-.5 4.3-2.2 6-1.7 1.6-3.8 2.5-6.5 2.5z"></path><path class="st2" d="M31.4 12.6c0 3.5-2.7 6-5.9 6s-5.9-2.5-5.9-6 2.7-6 5.9-6 5.9 2.6 5.9 6zm-2.6 0c0-2.2-1.5-3.6-3.3-3.6s-3.3 1.5-3.3 3.6 1.5 3.6 3.3 3.6c1.8.1 3.3-1.4 3.3-3.6z"></path><path d="M44.7 12.6c0 3.5-2.7 6-5.9 6-3.3 0-5.9-2.5-5.9-6s2.7-6 5.9-6 5.9 2.6 5.9 6zm-2.6 0c0-2.2-1.5-3.6-3.3-3.6s-3.3 1.5-3.3 3.6 1.5 3.6 3.3 3.6c1.8.1 3.3-1.4 3.3-3.6z" fill="#fbbc04"></path><path class="st1" d="M57.6 7v10.8c0 4.4-2.6 6.3-5.7 6.3-2.9 0-4.7-2-5.3-3.5l2.3-1c.4 1 1.4 2.1 3 2.1 2 0 3.2-1.2 3.2-3.5v-.9H55c-.6.7-1.7 1.4-3.2 1.4-3 0-5.7-2.6-5.7-6s2.8-6 5.7-6c1.4 0 2.6.6 3.2 1.3h.1V7h2.5zm-2.3 5.7c0-2.1-1.4-3.7-3.2-3.7s-3.3 1.5-3.3 3.7c0 2.1 1.5 3.6 3.3 3.6s3.2-1.5 3.2-3.6z"></path><path d="M62.2.6v17.6h-2.6V.6h2.6z" fill="#34a853"></path><path class="st2" d="M72.6 14.6l2 1.4c-.7 1-2.2 2.7-5 2.7-3.4 0-5.9-2.6-5.9-6 0-3.6 2.5-6 5.6-6s4.6 2.5 5.1 3.8l.3.7-8 3.3c.6 1.2 1.6 1.8 2.9 1.8s2.3-.7 3-1.7zm-6.3-2.1l5.4-2.2c-.3-.7-1.2-1.3-2.2-1.3-1.4 0-3.3 1.1-3.2 3.5z"></path></g></svg>