<svg xmlns="http://www.w3.org/2000/svg" viewBox="0 0 29.328 41.649"><defs><style>.a{fill:#5f00ed;}</style></defs><g transform="translate(-0.081)"><g transform="translate(0.081)"><g transform="translate(0)"><g transform="translate(9.643 11.552)"><path class="a" d="M156.51,175.993c0-.283-2.239-.593-5.005-.593s-5.005.316-5.005.593,2.239.593,5.005.593S156.51,176.276,156.51,175.993Z" transform="translate(-146.5 -175.4)"/></g><g transform="translate(9.61)"><circle class="a" cx="2.865" cy="2.865" r="2.865"/></g><g transform="translate(14.892 4.801)"><path class="a" d="M228.242,76.983a2.042,2.042,0,1,0-2.042-2.042A2.043,2.043,0,0,0,228.242,76.983Z" transform="translate(-226.2 -72.9)"/></g><g transform="translate(0 7.06)"><path class="a" d="M29.363,139.925l-8.9-21.878,2.549-6.731a.655.655,0,0,0-.415-.85,28.641,28.641,0,0,0-7.857-1.047c-.217,0-.435,0-.652.007a1.577,1.577,0,0,0,.119-.606,1.62,1.62,0,0,0-3.24,0,1.6,1.6,0,0,0,.217.81,26.035,26.035,0,0,0-4.307.836.655.655,0,0,0-.415.863l2.608,6.764L.128,139.925a.836.836,0,0,0-.046.316c-.007.744.915.883,1.653.994s1.752.2,3.056.29c2.661.171,6.2.263,9.951.263s7.291-.092,9.951-.263c1.3-.086,2.331-.178,3.056-.29s1.66-.25,1.66-.994A1.244,1.244,0,0,0,29.363,139.925Zm-14.621.553a97.672,97.672,0,0,1-13.191-.593l8.825-21.549a.639.639,0,0,0,.007-.481L7.946,111.52a29.12,29.12,0,0,1,13.587,0l-2.384,6.3a.623.623,0,0,0,.007.474l8.779,21.588A97.51,97.51,0,0,1,14.742,140.478Z" transform="translate(-0.081 -107.2)"/></g><path class="a" d="M74.391,293.473l-2.417-5.927V286.36a3.658,3.658,0,0,0-1.041-2.6,3.713,3.713,0,0,0-.586-.487L66.2,272.879c-.013-.026-.026-.079-.066-.079-.836.079-1.87.132-2.99.132s-2.16-.053-3-.132c-.04,0-.059.046-.072.072l-3.1,7.725a3.634,3.634,0,0,0-1.508,3.01v.988L51.9,293.473a28.236,28.236,0,0,0,4.794.336V283.6a2.381,2.381,0,1,1,4.762,0v3.774a3.639,3.639,0,0,0-2.107,3.339v3.24h1.218v-3.24a2.328,2.328,0,0,1,4.656.007v3.234h1.33v-3.24a3.609,3.609,0,0,0-.593-1.969c0-.8-.007-2.476,0-2.463a2.444,2.444,0,0,1,2.417-2.259,2.413,2.413,0,0,1,2.417,2.239v7.547A26.87,26.87,0,0,0,74.391,293.473Zm-8.173-10.09a3.435,3.435,0,0,0-.962.988,3.647,3.647,0,0,0-.514,1.225,3.714,3.714,0,0,0-.079.764v1.179a3.893,3.893,0,0,0-1.758-.428,2.133,2.133,0,0,0-.237.007v-3.51a3.379,3.379,0,0,0-1.106-2.615v-1.8a2.6,2.6,0,0,1,5.2-.007v3.905A2.3,2.3,0,0,0,66.218,283.383Z" transform="translate(-48.487 -254.834)"/><g transform="translate(8.899 28.747)"><path class="a" d="M135.845,437.784a.642.642,0,1,0-.645-.639A.641.641,0,0,0,135.845,437.784Z" transform="translate(-135.2 -436.5)"/></g><g transform="translate(10.96 28.747)"><path class="a" d="M167.784,437.139a.642.642,0,1,0-.639.645A.641.641,0,0,0,167.784,437.139Z" transform="translate(-166.5 -436.5)"/></g><g transform="translate(14.055 23.913)"><path class="a" d="M214.145,364.384a.642.642,0,1,0-.645-.639A.641.641,0,0,0,214.145,364.384Z" transform="translate(-213.5 -363.1)"/></g><g transform="translate(16.117 23.913)"><path class="a" d="M245.445,364.384a.642.642,0,1,0-.645-.639A.649.649,0,0,0,245.445,364.384Z" transform="translate(-244.8 -363.1)"/></g><g transform="translate(18.237 31.513)"><path class="a" d="M277.645,479.784a.642.642,0,1,0-.645-.639A.641.641,0,0,0,277.645,479.784Z" transform="translate(-277 -478.5)"/></g><g transform="translate(20.299 31.52)"><path class="a" d="M309.584,479.239a.642.642,0,1,0-.639.645A.649.649,0,0,0,309.584,479.239Z" transform="translate(-308.3 -478.6)"/></g><g transform="translate(12.87 35.155)"><path class="a" d="M196.1,535.005a.6.6,0,1,0-.606-.6A.6.6,0,0,0,196.1,535.005Z" transform="translate(-195.498 -533.8)"/></g><g transform="translate(14.813 35.155)"><path class="a" d="M226.205,534.4a.6.6,0,1,0-.6.606A.6.6,0,0,0,226.205,534.4Z" transform="translate(-225 -533.8)"/></g></g><g transform="translate(14.434 26.063)"><path class="a" d="M220.562,396.732a2.156,2.156,0,0,1-1.146-.323.358.358,0,1,1,.382-.606,1.463,1.463,0,0,0,1.535,0,.358.358,0,1,1,.382.606A2.212,2.212,0,0,1,220.562,396.732Z" transform="translate(-219.248 -395.748)"/></g><g transform="translate(9.282 30.958)"><path class="a" d="M142.336,471.066a2.156,2.156,0,0,1-1.146-.323.359.359,0,1,1,.375-.612,1.463,1.463,0,0,0,1.535,0,.359.359,0,1,1,.375.612A2.193,2.193,0,0,1,142.336,471.066Z" transform="translate(-141.021 -470.076)"/></g><g transform="translate(13.137 37.2)"><path class="a" d="M200.862,565.832a2.155,2.155,0,0,1-1.146-.323.358.358,0,1,1,.382-.606,1.463,1.463,0,0,0,1.535,0,.358.358,0,1,1,.382.606A2.257,2.257,0,0,1,200.862,565.832Z" transform="translate(-199.548 -564.848)"/></g><g transform="translate(18.603 33.742)"><path class="a" d="M283.862,513.332a2.156,2.156,0,0,1-1.146-.323.358.358,0,1,1,.382-.606,1.463,1.463,0,0,0,1.534,0,.358.358,0,0,1,.382.606A2.178,2.178,0,0,1,283.862,513.332Z" transform="translate(-282.548 -512.348)"/></g></g></g></svg>